<?xml version="1.0" encoding="utf-8"?>
<!-- Generator: Adobe Illustrator 26.0.3, SVG Export Plug-In . SVG Version: 6.00 Build 0)  -->
<svg version="1.1" id="Layer_1" xmlns="http://www.w3.org/2000/svg" xmlns:xlink="http://www.w3.org/1999/xlink" x="0px" y="0px"
	 viewBox="0 0 512 512" style="enable-background:new 0 0 512 512;" xml:space="preserve">
<style type="text/css">
	.st0{fill:#9B8CCC;}
	.st1{fill:#94E7EF;}
	.st2{fill:#FFFFFF;}
</style>
<path d="M512,481.4c0,7.3-5.8,13.1-13.1,13.1l-485.4,0.7c0,0,0,0,0,0c-3.5,0-6.8-1.4-9.3-3.8c-2.5-2.5-3.8-5.8-3.9-9.3L0,197.8
	c0-0.1,0-0.1,0-0.2c0.1-4.1,2-8.1,5.7-10.6l73.7-50.9v-54c0-7.2,5.9-13.1,13.1-13.1h83.9l72.2-49.9c4.5-3.1,10.5-3.1,14.9,0
	L335.3,69h84.3c7.3,0,13.1,5.9,13.1,13.1v54.6l73.3,51c2.6,1.8,4.4,4.4,5.2,7.3c0.3,0.7,0.5,1.8,0.5,2.6L512,481.4z M485.7,455.3
	l-0.3-233.1l-158.3,110L485.7,455.3z M432.7,226.9l41.9-29.1l-41.9-29.1V226.9z M51.9,468.9l407.9-0.6L256.2,310.4L51.9,468.9z
	 M406.5,245.2V95.3H105.5v150.5l101.1,69.9l41.5-32.2c4.8-3.7,11.3-3.6,15.9-0.1c0.1,0.1,0.1,0.1,0.2,0.1l41.2,32L406.5,245.2z
	 M222.5,69h66.8L256,45.9L222.5,69z M26.6,455.3l158.3-122.8L26.2,222.9L26.6,455.3z M79.3,227.6V168l-43.2,29.8L79.3,227.6z"/>
<polygon class="st0" points="485.4,222.2 485.7,455.3 327.1,332.3 "/>
<polygon class="st1" points="474.6,197.8 432.7,226.9 432.7,168.7 "/>
<polygon class="st0" points="459.8,468.4 51.9,468.9 256.2,310.4 "/>
<path class="st2" d="M406.5,95.3v149.9l-101,70.2l-41.2-32c-0.1-0.1-0.1-0.1-0.2-0.1c-4.6-3.4-11.1-3.6-15.9,0.1l-41.5,32.2
	l-101.1-69.9V95.3H406.5z M357.9,160.8c0-7.2-5.9-13.1-13.1-13.1H167.2c-7.2,0-13.1,5.9-13.1,13.1s5.9,13.1,13.1,13.1h177.5
	C352,173.9,357.9,168.1,357.9,160.8z M357.9,229c0-7.2-5.9-13.1-13.1-13.1H167.2c-7.2,0-13.1,5.9-13.1,13.1s5.9,13.1,13.1,13.1
	h177.5C352,242.1,357.9,236.2,357.9,229z"/>
<g>
	<path d="M344.8,147.7c7.2,0,13.1,5.9,13.1,13.1s-5.9,13.1-13.1,13.1H167.2c-7.2,0-13.1-5.9-13.1-13.1s5.9-13.1,13.1-13.1H344.8z"/>
	<path d="M344.8,215.9c7.2,0,13.1,5.9,13.1,13.1s-5.9,13.1-13.1,13.1H167.2c-7.2,0-13.1-5.9-13.1-13.1s5.9-13.1,13.1-13.1H344.8z"/>
</g>
<polygon class="st1" points="289.3,69 222.5,69 256,45.9 "/>
<polygon class="st0" points="184.9,332.5 26.6,455.3 26.2,222.9 "/>
<polygon class="st1" points="79.3,168 79.3,227.6 36.2,197.8 "/>
</svg>
