<?xml version="1.0" encoding="utf-8"?>
<!-- Generator: Adobe Illustrator 26.0.3, SVG Export Plug-In . SVG Version: 6.00 Build 0)  -->
<svg version="1.1" id="Layer_1" xmlns="http://www.w3.org/2000/svg" xmlns:xlink="http://www.w3.org/1999/xlink" x="0px" y="0px"
	 viewBox="0 0 512 512" style="enable-background:new 0 0 512 512;" xml:space="preserve">
<style type="text/css">
	.st0{fill:#FFFFFF;}
</style>
<g>
	<g>
		<path class="st0" d="M497.6,69.5h-482C7.6,69.5,1.1,76,1.1,84s6.5,14.4,14.4,14.4h482c8,0,14.4-6.5,14.4-14.4
			S505.5,69.5,497.6,69.5z"/>
	</g>
</g>
<g>
	<g>
		<g>
			<path class="st0" d="M509.5,135.3c-2.4-5.1-7.5-8.1-13.1-8.1h-482c-5.6,0-10.7,3-13.1,8.1c-2.4,5.1-1.6,10.9,2,15.2l241,286.8
				c2.7,3.3,6.8,5.1,11.1,5.1c4.3,0,8.3-1.9,11.1-5.2l241-286.8C511.1,146.1,511.9,140.4,509.5,135.3z M255.4,406.1l-210-250h420
				L255.4,406.1z"/>
		</g>
	</g>
	<g>
		<g>
			<path class="st0" d="M127.2,127.3l-72.9,80.2c-1.2,1.3,2.6,6.7,8.5,12.1c5.9,5.4,11.7,8.6,12.9,7.3l72.9-80.2
				c1.2-1.3-2.6-6.7-8.5-12.1S128.4,125.9,127.2,127.3z"/>
		</g>
	</g>
	<g>
		<g>
			<path class="st0" d="M220.2,127.6L100.5,259.2c-2,2.2,1.2,8.3,7.1,13.7s12.3,7.9,14.3,5.8L241.6,147c2-2.2-1.2-8.3-7.1-13.7
				S222.2,125.4,220.2,127.6z"/>
		</g>
	</g>
	<g>
		<g>
			<path class="st0" d="M290.6,142.8L146.5,301.3c-2.4,2.6,0.5,9.1,6.4,14.5c5.9,5.4,12.6,7.6,15,5L312,162.2
				c2.4-2.6-0.5-9.1-6.4-14.5C299.7,142.4,293,140.2,290.6,142.8z"/>
		</g>
	</g>
	<g>
		<g>
			<path class="st0" d="M403.1,129.2L204.9,347.1c-3.3,3.6-1.2,10.9,4.7,16.2c5.9,5.4,13.3,6.8,16.6,3.2l198.2-217.9
				c3.3-3.6,1.2-10.9-4.7-16.2C413.8,127.1,406.3,125.6,403.1,129.2z"/>
		</g>
	</g>
</g>
</svg>
