<?xml version="1.0" encoding="utf-8"?>
<!-- Generator: Adobe Illustrator 26.0.3, SVG Export Plug-In . SVG Version: 6.00 Build 0)  -->
<svg version="1.1" id="Capa_1" xmlns="http://www.w3.org/2000/svg" xmlns:xlink="http://www.w3.org/1999/xlink" x="0px" y="0px"
	 viewBox="0 0 60 60" style="enable-background:new 0 0 60 60;" xml:space="preserve">
<style type="text/css">
	.st0{fill:#FFFFFF;}
</style>
<g>
	<path class="st0" d="M36,22H11c-0.6,0-1,0.4-1,1s0.4,1,1,1h25c0.6,0,1-0.4,1-1S36.6,22,36,22z"/>
	<path class="st0" d="M11,16h10c0.6,0,1-0.4,1-1s-0.4-1-1-1H11c-0.6,0-1,0.4-1,1S10.4,16,11,16z"/>
	<path class="st0" d="M37,31c0-0.6-0.4-1-1-1H11c-0.6,0-1,0.4-1,1s0.4,1,1,1h25C36.6,32,37,31.6,37,31z"/>
	<path class="st0" d="M29,39c0-0.6-0.4-1-1-1H11c-0.6,0-1,0.4-1,1s0.4,1,1,1h17C28.6,40,29,39.6,29,39z"/>
	<path class="st0" d="M11,46c-0.6,0-1,0.4-1,1s0.4,1,1,1h14c0.6,0,1-0.4,1-1s-0.4-1-1-1H11z"/>
	<path class="st0" d="M2,2h29v14h14v19h2V14.6L32.4,0H0v60h33v-2H2V2z M33,3.4L43.6,14H33V3.4z"/>
	<path class="st0" d="M56,45.3c-0.4-4.1-3.9-7.3-8-7.3c-2.6,0-5,1.3-6.5,3.4c-0.3-0.1-0.6-0.1-0.9-0.1c-2.3,0-4.4,1.6-5.1,3.8
		c-1.9,1.1-3.1,3.2-3.1,5.5c0,3.5,2.8,6.4,6.2,6.4h10.8c0.1,0,0.1,0,0.2,0c0.1,0,0.1,0,0.2,0h4.3c3.2,0,5.8-2.7,5.8-6
		C60,48.4,58.4,46.1,56,45.3z M54.2,55l-4.3,0l-0.2,0l-10.9,0c-2.3,0-4.2-2-4.2-4.4c0-1.7,0.9-3.2,2.4-3.9l0.4-0.2l0.1-0.5
		c0.3-1.6,1.7-2.7,3.2-2.7c0.3,0,0.7,0.1,1,0.2l0.8,0.3l0.4-0.7c1.1-1.9,3-3,5.2-3c3.3,0,6,2.7,6,6.1l0,0.8l0.8,0.2
		c1.8,0.4,3.1,2,3.1,3.9C58,53.2,56.3,55,54.2,55z"/>
</g>
</svg>
