<?xml version="1.0" encoding="utf-8"?>
<!-- Generator: Adobe Illustrator 26.0.3, SVG Export Plug-In . SVG Version: 6.00 Build 0)  -->
<svg version="1.1" id="Layer_1" xmlns="http://www.w3.org/2000/svg" xmlns:xlink="http://www.w3.org/1999/xlink" x="0px" y="0px"
	 viewBox="0 0 100 100" style="enable-background:new 0 0 100 100;" xml:space="preserve">
<style type="text/css">
	.st0{fill:#FFFFFF;}
</style>
<path class="st0" d="M35.6,93.7c1.4-0.6,2.4-2,2.4-3.7V79.2c0-0.4,0-0.8,0.1-1.2c0,0-0.1,0-0.1,0c0,0-6,0-7.2,0
	c-3,0-5.6-1.2-6.8-3.6c-1.4-2.6-2-7-5.6-9.4c-0.6-0.4-0.2-1,1-1c1.2,0.2,3.8,1.8,5.4,4c1.8,2.2,3.6,4,6.8,4c5,0,7.6-0.2,9.2-1.1
	c1.9-2.8,4.5-4.9,7.2-4.9v-0.1c-11.3-0.4-18.6-4.1-22-10c-7.3,0.1-13.7,0.8-17.4,1.4c-0.1-0.7-0.2-1.3-0.3-2
	c3.6-0.6,9.7-1.3,16.7-1.4c-0.2-0.6-0.4-1.1-0.6-1.7c-7-0.4-13.1-0.1-16.4,0.2c0-0.7-0.1-1.3-0.1-2c3.3-0.3,9.2-0.5,16-0.2
	c-0.2-1-0.3-2-0.3-3.1c0-3.4,1.2-7,3.4-10c-1-3.4-2.4-10.6,0.4-13.2c5.4,0,9.2,2.6,11,4.2C42,26.8,45.8,26,50,26s8,0.8,11.2,2.2
	c1.8-1.6,5.6-4.2,11-4.2c3,2.8,1.4,10,0.4,13.2c2.2,3,3.4,6.4,3.2,10c0,1-0.1,1.9-0.2,2.8c7-0.3,13.1-0.1,16.4,0.2
	c0,0.7-0.1,1.3-0.1,2c-3.3-0.3-9.6-0.6-16.7-0.2c-0.2,0.7-0.4,1.3-0.7,2c7.1,0.1,13.3,0.8,17.1,1.4c-0.1,0.7-0.2,1.3-0.3,2
	C87.5,56.7,81,56,73.6,56c-3.3,5.8-10.4,9.5-21.6,9.9V66c5.2,0,10,7.8,10,13.2V90c0,1.6,1,3.1,2.4,3.7C82.7,87.6,96,70.3,96,50
	C96,24.6,75.4,4,50,4S4,24.6,4,50C4,70.3,17.3,87.6,35.6,93.7z"/>
</svg>
