<?xml version="1.0" encoding="utf-8"?>
<!-- Generator: Adobe Illustrator 26.0.3, SVG Export Plug-In . SVG Version: 6.00 Build 0)  -->
<svg version="1.1" id="Capa_1" xmlns="http://www.w3.org/2000/svg" xmlns:xlink="http://www.w3.org/1999/xlink" x="0px" y="0px"
	 viewBox="0 0 103.7 103.7" style="enable-background:new 0 0 103.7 103.7;" xml:space="preserve">
<style type="text/css">
	.st0{fill:#FFFFFF;}
</style>
<g>
	<path class="st0" d="M74.8,62.9C71,71.8,62,77.5,51.9,77.5c-10.3,0-19.4-5.8-23.1-14.7c-0.6-1.5,0.1-3.3,1.6-3.9
		c0.4-0.2,0.8-0.2,1.1-0.2c1.2,0,2.3,0.7,2.8,1.9c2.8,6.7,9.7,11,17.5,11c7.7,0,14.5-4.3,17.4-11c0.7-1.5,2.4-2.2,3.9-1.6
		C74.8,59.6,75.5,61.4,74.8,62.9z M103.7,18.2v67.2c0,10.1-8.2,18.2-18.2,18.2H18.2C8.2,103.7,0,95.5,0,85.5V18.2
		C0,8.2,8.2,0,18.2,0h67.2C95.5,0,103.7,8.2,103.7,18.2z M8.6,18.2v8.9L23,33.8c1.6-5.5,6.7-9.5,12.6-9.5c6.3,0,11.5,4.4,12.8,10.3
		h6.7c1.3-5.9,6.6-10.4,12.9-10.4c5.9,0,11,4,12.6,9.4l14.5-7v-8.4c0-5.3-4.3-9.7-9.7-9.7H18.2C12.9,8.6,8.6,12.9,8.6,18.2z
		 M95.1,85.5V30.3l-14,6.7c0,0.1,0,0.3,0,0.4c0,7.3-5.9,13.2-13.2,13.2c-7.1,0-12.9-5.7-13.1-12.7h-6.1c-0.2,7.1-6,12.7-13.1,12.7
		c-7.3,0-13.2-5.9-13.2-13.2c0-0.1,0-0.2,0-0.3L8.6,30.8v54.7c0,5.3,4.3,9.7,9.7,9.7h67.2C90.8,95.1,95.1,90.8,95.1,85.5z"/>
</g>
</svg>
