<?xml version="1.0" encoding="utf-8"?>
<!-- Generator: Adobe Illustrator 26.0.3, SVG Export Plug-In . SVG Version: 6.00 Build 0)  -->
<svg version="1.1" id="Capa_1" xmlns="http://www.w3.org/2000/svg" xmlns:xlink="http://www.w3.org/1999/xlink" x="0px" y="0px"
	 viewBox="0 0 103.7 103.7" style="enable-background:new 0 0 103.7 103.7;" xml:space="preserve">
<style type="text/css">
	.st0{fill:#FFFFFF;}
</style>
<g>
	<path class="st0" d="M73.7,59.4c-0.7,0-1.6,0.1-2.6,0.4c-7.2,3.1-13.9,4.1-19.6,4.1c-11.5,0-19.1-4.1-19.1-4.1
		c-0.9-0.2-1.8-0.4-2.6-0.4v0h0c0,0,0,0-0.1,0c0,0-0.1,0-0.1,0l0,0c-6.3,0.2-4,9.2-4,9.2c4.7,14.6,20.6,15.6,24.9,15.6
		c0.7,0,1.1,0,1.1,0s0.4,0,1.1,0c4.3,0,20.2-1,24.9-15.6C77.9,68.7,80.3,59.4,73.7,59.4z M31.6,72.2c-0.8-1.2-1.5-2.6-2-4.2
		c-0.4-1.5-0.5-4,0.2-4.9c0.1-0.1,0.2-0.3,1-0.3c0.2,0,0.6,0,0.9,0.1V72.2z M40.9,79.3c-1.8-0.7-3.6-1.6-5.3-2.8v-12
		c1.4,0.5,3.2,1.1,5.3,1.5V79.3z M50.5,80.9c-1.3,0-3.3-0.1-5.6-0.6V66.7c1.7,0.2,3.6,0.4,5.6,0.4V80.9z M59.5,80.2
		c-1.9,0.4-3.7,0.6-5,0.7V67c1.7-0.1,3.3-0.3,5-0.6V80.2z M68.4,76.2c-1.5,1.2-3.2,2.1-4.9,2.8V65.6c1.7-0.4,3.3-0.9,4.9-1.5V76.2z
		 M74.1,68c-0.4,1.4-1,2.6-1.7,3.7v-8.8c0.2,0,0.3,0,0.5,0c0.8,0,1,0.2,1,0.3C74.6,64,74.5,66.5,74.1,68z M32.1,37.5
		c0-3.4,2.8-6.2,6.2-6.2c3.4,0,6.2,2.8,6.2,6.2c0,3.4-2.8,6.2-6.2,6.2C34.8,43.7,32.1,40.9,32.1,37.5z M60.2,37.5
		c0-3.4,2.8-6.2,6.2-6.2c3.4,0,6.2,2.8,6.2,6.2c0,3.4-2.8,6.2-6.2,6.2C63,43.7,60.2,40.9,60.2,37.5z M85.5,103.7H18.2
		C8.2,103.7,0,95.5,0,85.5V18.2C0,8.2,8.2,0,18.2,0h67.2c10.1,0,18.2,8.2,18.2,18.2v67.2C103.7,95.5,95.5,103.7,85.5,103.7z
		 M18.2,8.6c-5.3,0-9.7,4.3-9.7,9.7v67.2c0,5.3,4.3,9.7,9.7,9.7h67.2c5.3,0,9.7-4.3,9.7-9.7V18.2c0-5.3-4.3-9.7-9.7-9.7L18.2,8.6
		L18.2,8.6z"/>
</g>
</svg>
