<?xml version="1.0" encoding="utf-8"?>
<!-- Generator: Adobe Illustrator 26.0.3, SVG Export Plug-In . SVG Version: 6.00 Build 0)  -->
<svg version="1.1"
	 id="svg4647" xmlns:cc="http://creativecommons.org/ns#" xmlns:dc="http://purl.org/dc/elements/1.1/" xmlns:inkscape="http://www.inkscape.org/namespaces/inkscape" xmlns:rdf="http://www.w3.org/1999/02/22-rdf-syntax-ns#" xmlns:sodipodi="http://sodipodi.sourceforge.net/DTD/sodipodi-0.dtd" xmlns:svg="http://www.w3.org/2000/svg"
	 xmlns="http://www.w3.org/2000/svg" xmlns:xlink="http://www.w3.org/1999/xlink" x="0px" y="0px" viewBox="0 0 24 24"
	 style="enable-background:new 0 0 24 24;" xml:space="preserve">
<style type="text/css">
	.st0{fill:#FFFFFF;}
</style>
<g id="layer1" transform="translate(0,-290.64999)">
	<path id="rect4598" class="st0" d="M4,76.9c-2.2,0-4,1.8-4,4v16c0,2.2,1.8,4,4,4h16c2.2,0,4-1.8,4-4v-16c0-2.2-1.8-4-4-4H4z
		 M7,80.9h10c1.6,0,3,1.4,3,3v10c0,1.6-1.4,3-3,3H7c-1.6,0-3-1.4-3-3v-10C4,82.3,5.4,80.9,7,80.9z M7,82.9c-0.6,0-1,0.4-1,1v10
		c0,0.6,0.4,1,1,1h10c0.6,0,1-0.4,1-1v-10c0-0.6-0.4-1-1-1H7z M16,83.9c0.6,0,1,0.4,1,1l0,0c0,0.6-0.4,1-1,1c0,0,0,0,0,0
		c-0.6,0-1-0.4-1-1l0,0C15,84.4,15.4,83.9,16,83.9C16,83.9,16,83.9,16,83.9z M12,84.9c2.2,0,4,1.8,4,4s-1.8,4-4,4c-2.2,0-4-1.8-4-4
		C8,86.7,9.8,84.9,12,84.9z M12,86.9c-1.1,0-2,0.9-2,2c0,1.1,0.9,2,2,2c1.1,0,2-0.9,2-2C14,87.8,13.1,86.9,12,86.9z"/>
	<path id="rect5236" class="st0" d="M4,290.6c-2.2,0-4,1.8-4,4v16c0,2.2,1.8,4,4,4h16c2.2,0,4-1.8,4-4v-16c0-2.2-1.8-4-4-4H4z
		 M7.3,295.2h9.4c1.5,0,2.8,1.3,2.8,2.8v9.4c0,1.5-1.3,2.8-2.8,2.8H7.3c-1.5,0-2.8-1.3-2.8-2.8V298C4.5,296.4,5.8,295.2,7.3,295.2z
		 M7.3,297c-0.5,0-0.9,0.4-0.9,0.9v9.4c0,0.5,0.4,0.9,0.9,0.9h9.4c0.5,0,0.9-0.4,0.9-0.9V298c0-0.5-0.4-0.9-0.9-0.9H7.3z M15.8,298
		c0.5,0,0.9,0.4,0.9,0.9c0,0.5-0.4,0.9-0.9,0.9c0,0,0,0,0,0c-0.5,0-0.9-0.4-0.9-0.9c0,0,0,0,0,0C14.8,298.4,15.2,298,15.8,298z
		 M12,298.9c2.1,0,3.8,1.7,3.8,3.8c0,2.1-1.7,3.8-3.8,3.8s-3.8-1.7-3.8-3.8C8.2,300.6,9.9,298.9,12,298.9z M12,300.8
		c-1,0-1.9,0.8-1.9,1.9c0,1,0.8,1.9,1.9,1.9c1,0,1.9-0.8,1.9-1.9C13.9,301.6,13,300.8,12,300.8z"/>
</g>
</svg>
