<?xml version="1.0" encoding="utf-8"?>
<!-- Generator: Adobe Illustrator 26.0.3, SVG Export Plug-In . SVG Version: 6.00 Build 0)  -->
<svg version="1.1" id="Layer_5" xmlns="http://www.w3.org/2000/svg" xmlns:xlink="http://www.w3.org/1999/xlink" x="0px" y="0px"
	 viewBox="0 0 512 512" style="enable-background:new 0 0 512 512;" xml:space="preserve">
<style type="text/css">
	.st0{fill:#FFFFFF;}
	.st1{fill:none;}
</style>
<g>
	<path class="st0" d="M480.4,11.5H29.5c-11,0-20,9-20,20v450.9c0,11,9,20,20,20h450.9c11,0,20-9,20-20V31.5
		C500.4,20.5,491.4,11.5,480.4,11.5z M167.6,412H99.5V192.3h68.1L167.6,412L167.6,412z M134.1,168c-21.5,0-35.4-15.2-35.4-34.1
		c0-19.3,14.3-34.1,36.3-34.1s35.4,14.8,35.9,34.1C170.9,152.8,157,168,134.1,168z M420.3,412h-68.1V294.6
		c0-28.2-9.9-47.5-34.5-47.5c-18.8,0-30,13-35,25.6c-1.8,4.5-2.2,10.8-2.2,17V412h-68.1V266.8c0-27.3-0.9-54.8-1.8-74.5h59.2
		l8.1,35.1h2.3c9-14.3,24.9-35.4,61.7-35.4c44.8,0,78.4,30,78.4,94.6L420.3,412L420.3,412z"/>
</g>
<g>
	<path class="st1" d="M861.8,143.9c0,18.8-13.9,34.1-36.8,34.1c-21.5,0-35.4-15.2-35.4-34.1c0-19.3,14.3-34.1,36.3-34.1
		S861.4,124.7,861.8,143.9z M791.5,424.1V204.9h68.1v219.2L791.5,424.1L791.5,424.1z"/>
	<path class="st1" d="M901.3,274.8c0-27.3-0.9-50.2-1.8-69.9h59.2l3.1,30.5h1.3c9-14.3,30.9-35.4,67.7-35.4
		c44.8,0,78.4,30,78.4,94.6v129.5h-68.1V302.6c0-28.2-9.9-47.5-34.5-47.5c-18.8,0-30,13-35,25.6c-1.8,4.5-2.2,10.8-2.2,17v126.4
		h-68.1L901.3,274.8L901.3,274.8z"/>
</g>
</svg>
