<?xml version="1.0" encoding="utf-8"?>
<!-- Generator: Adobe Illustrator 26.0.3, SVG Export Plug-In . SVG Version: 6.00 Build 0)  -->
<svg version="1.1" id="Layer_1" xmlns="http://www.w3.org/2000/svg" xmlns:xlink="http://www.w3.org/1999/xlink" x="0px" y="0px"
	 viewBox="0 0 28 28" style="enable-background:new 0 0 28 28;" xml:space="preserve">
<style type="text/css">
	.st0{fill:#FFFFFF;}
</style>
<desc>Created with Sketch.</desc>
<g id="_xD83D__xDD0D_-Product-Icons">
	<g id="ic_fluent_send_28_filled">
		<path id="_xD83C__xDFA8_-Color" class="st0" d="M3.8,2.8l21.1,10.1c0.6,0.3,0.9,1,0.6,1.7c-0.1,0.3-0.3,0.5-0.6,0.6L3.8,25.2
			c-0.6,0.3-1.4,0-1.7-0.6C2,24.3,2,24,2,23.7L4.2,16c0.1-0.2,0.2-0.3,0.4-0.4l10.2-1.4c0.1,0,0.2-0.1,0.2-0.1l0-0.1
			c0-0.1-0.1-0.2-0.2-0.3l-0.1,0L4.6,12.4c-0.2,0-0.4-0.2-0.4-0.4L2,4.2C1.9,3.6,2.3,2.9,2.9,2.7C3.2,2.6,3.5,2.6,3.8,2.8z"/>
	</g>
</g>
</svg>
